<mxfile host="app.diagrams.net" modified="2024-04-19T12:10:04.302Z" agent="Mozilla/5.0 (Windows NT 10.0; Win64; x64) AppleWebKit/537.36 (KHTML, like Gecko) Chrome/123.0.0.0 Safari/537.36" version="24.2.5" etag="Cr7NHR4kCtM5p8KKs_pt" type="github">
  <diagram name="PÃ¡gina-1" id="Ulyw8SsMolKSaPtAp2oN">
    <mxGraphModel>
      <root>
        <mxCell id="0" />
        <mxCell id="1" parent="0" />
      </root>
    </mxGraphModel>
  </diagram>
</mxfile>
